<svg width="390" height="371" viewBox="0 0 390 371" fill="none" xmlns="http://www.w3.org/2000/svg">
<path d="M17.5335 272.939C71.9622 284.122 119.696 321.963 181.935 358.896C203.85 371.859 229.024 373.691 251.183 366.398C273.289 359.106 292.449 342.671 302.386 319.206C330.507 252.492 346.442 193.663 383.576 152.315C394.682 140.121 388.214 120.476 372.07 117.318C330.49 109.153 299.946 73.5806 298.063 31.2211C297.296 14.7518 278.868 5.48786 265.182 14.6646C258.104 19.4623 250.503 23.0911 242.71 25.6732C211.765 35.8618 177.019 29.0054 152.001 6.18571C145.952 0.655251 137.967 -0.513647 131.185 1.71947C124.403 3.95259 118.668 9.64007 117.064 17.7002C110.543 50.9004 86.6067 77.1221 55.6615 87.3108C47.8511 89.8928 39.5874 91.4804 31.0448 91.8293C14.5871 92.597 5.25999 110.985 14.4825 124.681C38.0532 159.887 34.6013 206.678 6.00965 237.959C-5.1132 250.084 1.35479 269.746 17.516 272.956L17.5335 272.939Z" fill="#50B9E0"/>
</svg>
