<svg width="1601" height="151" viewBox="0 0 1601 151" fill="none" xmlns="http://www.w3.org/2000/svg">
<path d="M1600.02 150.297C1495.4 150.297 1442.62 119.865 1391.46 90.4649C1342.11 62.0101 1295.42 35.1887 1199.98 35.1887C1104.54 35.1887 1057.94 62.0101 1008.5 90.4649C957.347 119.865 904.563 150.297 799.939 150.297C695.315 150.297 642.531 119.865 591.377 90.4649C542.026 62.0101 495.336 35.1887 399.981 35.1887C304.627 35.1887 257.937 62.0101 208.586 90.4649C157.432 119.865 104.648 150.297 0.0244141 150.297V115.911C95.4648 115.911 142.069 89.0894 191.42 60.6347C242.573 31.2343 295.358 0.802307 399.981 0.802307C504.605 0.802307 557.389 31.2343 608.543 60.6347C657.894 89.0894 704.584 115.911 799.939 115.911C895.293 115.911 941.983 89.0894 991.42 60.6347C1042.57 31.2343 1095.36 0.802307 1199.98 0.802307C1304.61 0.802307 1357.39 31.2343 1408.54 60.6347C1457.89 89.0894 1504.58 115.911 1600.02 115.911V150.297Z" fill="white"/>
</svg>
