<svg width="1098" height="1098" viewBox="0 0 1098 1098" fill="none" xmlns="http://www.w3.org/2000/svg">
<g clip-path="url(#clip0_336_458)">
<path d="M549.183 1097.57C541.223 1097.57 534.778 1091.12 534.778 1083.16C534.778 1075.2 541.223 1068.76 549.183 1068.76C835.844 1068.76 1069.08 835.526 1069.08 548.864C1069.08 426.204 1025.54 307.109 946.505 213.555C941.367 207.466 942.14 198.378 948.198 193.24C954.257 188.102 963.375 188.874 968.513 194.933C1051.94 293.684 1097.88 419.374 1097.88 548.864C1097.88 851.415 851.734 1097.57 549.183 1097.57Z" fill="#97D5EE"/>
<path d="M186.015 955.156C182.51 955.156 179.006 953.879 176.214 951.325C64.5431 847.792 0.480835 701.075 0.480835 548.835C0.480835 246.284 246.632 0.132812 549.183 0.132812C613.364 0.132812 676.238 11.1217 736.024 32.7728C743.508 35.4755 747.369 43.7617 744.666 51.246C741.964 58.7303 733.677 62.621 726.193 59.8886C669.556 39.3661 610.008 28.9712 549.183 28.9712C262.521 28.9712 29.3192 262.173 29.3192 548.835C29.3192 693.086 90.0254 832.051 195.845 930.149C201.696 935.555 202.023 944.672 196.618 950.523C193.766 953.582 189.906 955.127 186.045 955.127L186.015 955.156Z" fill="#97D5EE"/>
<path d="M549.183 864.958C374.875 864.958 233.089 723.171 233.089 548.864C233.089 411.325 320.941 290.447 451.679 248.095C459.222 245.66 467.39 249.788 469.825 257.361C472.29 264.935 468.132 273.073 460.559 275.508C341.73 313.999 261.898 423.858 261.898 548.864C261.898 707.282 390.765 836.149 549.183 836.149C707.601 836.149 836.468 707.282 836.468 548.864C836.468 472.12 806.59 399.979 752.329 345.718C746.686 340.075 746.686 330.957 752.329 325.344C757.972 319.731 767.089 319.701 772.703 325.344C832.399 385.04 865.277 464.428 865.277 548.864C865.277 723.171 723.461 864.958 549.183 864.958Z" fill="#97D5EE"/>
<path d="M549.183 644.081C531.482 644.081 514.197 639.181 499.198 629.944C492.427 625.757 490.318 616.876 494.506 610.105C498.693 603.333 507.574 601.254 514.345 605.412C524.77 611.857 536.828 615.273 549.183 615.273C585.803 615.273 615.591 585.484 615.591 548.864C615.591 512.244 585.803 482.456 549.183 482.456C512.563 482.456 482.774 512.244 482.774 548.864C482.774 556.824 476.329 563.268 468.37 563.268C460.41 563.268 453.966 556.824 453.966 548.864C453.966 496.355 496.674 453.617 549.212 453.617C601.751 453.617 644.459 496.325 644.459 548.864C644.459 601.403 601.751 644.081 549.212 644.081H549.183Z" fill="#97D5EE"/>
</g>
<defs>
<clipPath id="clip0_336_458">
<rect width="1097.43" height="1097.43" fill="white" transform="translate(0.480835 0.132812)"/>
</clipPath>
</defs>
</svg>
