<svg width="1601" height="151" viewBox="0 0 1601 151" fill="none" xmlns="http://www.w3.org/2000/svg">
<path d="M1600.02 150.2C1495.4 150.2 1442.62 119.768 1391.46 90.368C1342.11 61.9132 1295.42 35.0918 1199.98 35.0918C1104.54 35.0918 1057.94 61.9132 1008.5 90.368C957.347 119.768 904.563 150.2 799.939 150.2C695.315 150.2 642.531 119.768 591.377 90.368C542.026 61.9132 495.336 35.0918 399.981 35.0918C304.627 35.0918 257.937 61.9132 208.586 90.368C157.432 119.768 104.648 150.2 0.0244141 150.2V115.814C95.4648 115.814 142.069 88.9925 191.42 60.5377C242.573 31.1374 295.358 0.705383 399.981 0.705383C504.605 0.705383 557.389 31.1374 608.543 60.5377C657.894 88.9925 704.584 115.814 799.939 115.814C895.293 115.814 941.983 88.9925 991.42 60.5377C1042.57 31.1374 1095.36 0.705383 1199.98 0.705383C1304.61 0.705383 1357.39 31.1374 1408.54 60.5377C1457.89 88.9925 1504.58 115.814 1600.02 115.814V150.2Z" fill="#97D5EE"/>
</svg>
