<svg width="390" height="371" viewBox="0 0 390 371" fill="none" xmlns="http://www.w3.org/2000/svg">
<path d="M17.6419 272.939C72.0706 284.122 119.805 321.963 182.044 358.896C203.958 371.859 229.133 373.691 251.291 366.398C273.398 359.106 292.557 342.671 302.495 319.206C330.616 252.492 346.55 193.663 383.685 152.315C394.79 140.121 388.322 120.476 372.178 117.318C330.598 109.153 300.054 73.5806 298.171 31.2211C297.404 14.7518 278.976 5.48786 265.291 14.6646C258.213 19.4623 250.611 23.0911 242.819 25.6732C211.873 35.8618 177.127 29.0054 152.11 6.18571C146.06 0.655251 138.075 -0.513647 131.294 1.71947C124.512 3.95259 118.776 9.64007 117.172 17.7002C110.652 50.9004 86.7151 77.1221 55.7699 87.3108C47.9595 89.8928 39.6958 91.4804 31.1532 91.8293C14.6956 92.597 5.36845 110.985 14.591 124.681C38.1617 159.887 34.7097 206.678 6.11811 237.959C-5.00474 250.084 1.46325 269.746 17.6245 272.956L17.6419 272.939Z" fill="#97D5EE"/>
</svg>
