<svg width="1098" height="1098" viewBox="0 0 1098 1098" fill="none" xmlns="http://www.w3.org/2000/svg">
<g clip-path="url(#clip0_336_465)">
<path d="M548.978 1097.57C541.018 1097.57 534.573 1091.12 534.573 1083.16C534.573 1075.2 541.018 1068.76 548.978 1068.76C835.639 1068.76 1068.87 835.526 1068.87 548.864C1068.87 426.204 1025.33 307.109 946.3 213.555C941.162 207.466 941.934 198.378 947.993 193.24C954.052 188.102 963.17 188.874 968.308 194.933C1051.73 293.684 1097.68 419.374 1097.68 548.864C1097.68 851.415 851.528 1097.57 548.978 1097.57Z" fill="#FD6E12"/>
<path d="M185.81 955.156C182.305 955.156 178.801 953.879 176.009 951.325C64.3379 847.792 0.275635 701.075 0.275635 548.835C0.275635 246.284 246.427 0.132812 548.978 0.132812C613.159 0.132812 676.033 11.1217 735.818 32.7728C743.303 35.4755 747.164 43.7617 744.461 51.246C741.758 58.7303 733.472 62.621 725.988 59.8886C669.35 39.3661 609.803 28.9712 548.978 28.9712C262.316 28.9712 29.114 262.173 29.114 548.835C29.114 693.086 89.8202 832.051 195.64 930.149C201.491 935.555 201.818 944.672 196.412 950.523C193.561 953.582 189.7 955.127 185.839 955.127L185.81 955.156Z" fill="#FD6E12"/>
<path d="M548.978 864.958C374.67 864.958 232.884 723.171 232.884 548.864C232.884 411.325 320.735 290.447 451.474 248.095C459.017 245.66 467.185 249.788 469.62 257.361C472.085 264.935 467.927 273.073 460.354 275.508C341.525 313.999 261.692 423.858 261.692 548.864C261.692 707.282 390.559 836.149 548.978 836.149C707.396 836.149 836.263 707.282 836.263 548.864C836.263 472.12 806.385 399.979 752.124 345.718C746.481 340.075 746.481 330.957 752.124 325.344C757.766 319.731 766.884 319.701 772.498 325.344C832.194 385.04 865.071 464.428 865.071 548.864C865.071 723.171 723.255 864.958 548.978 864.958Z" fill="#FD6E12"/>
<path d="M548.977 644.081C531.276 644.081 513.991 639.181 498.993 629.944C492.221 625.757 490.113 616.876 494.3 610.105C498.488 603.333 507.368 601.254 514.14 605.412C524.564 611.857 536.622 615.273 548.977 615.273C585.597 615.273 615.386 585.484 615.386 548.864C615.386 512.244 585.597 482.456 548.977 482.456C512.358 482.456 482.569 512.244 482.569 548.864C482.569 556.824 476.124 563.268 468.165 563.268C460.205 563.268 453.76 556.824 453.76 548.864C453.76 496.355 496.468 453.617 549.007 453.617C601.546 453.617 644.254 496.325 644.254 548.864C644.254 601.403 601.546 644.081 549.007 644.081H548.977Z" fill="#FD6E12"/>
</g>
<defs>
<clipPath id="clip0_336_465">
<rect width="1097.43" height="1097.43" fill="white" transform="translate(0.275635 0.132812)"/>
</clipPath>
</defs>
</svg>
