<svg width="1601" height="150" viewBox="0 0 1601 150" fill="none" xmlns="http://www.w3.org/2000/svg">
<path d="M1600.02 149.652C1495.4 149.652 1442.62 119.22 1391.46 89.8194C1342.11 61.3647 1295.42 34.5433 1199.98 34.5433C1104.54 34.5433 1057.94 61.3647 1008.5 89.8194C957.347 119.22 904.563 149.652 799.939 149.652C695.315 149.652 642.531 119.22 591.377 89.8194C542.026 61.3647 495.336 34.5433 399.981 34.5433C304.627 34.5433 257.937 61.3647 208.586 89.8194C157.432 119.22 104.648 149.652 0.0244141 149.652V115.265C95.4648 115.265 142.069 88.444 191.42 59.9892C242.573 30.5888 295.358 0.15686 399.981 0.15686C504.605 0.15686 557.389 30.5888 608.543 59.9892C657.894 88.444 704.584 115.265 799.939 115.265C895.293 115.265 941.983 88.444 991.42 59.9892C1042.57 30.5888 1095.36 0.15686 1199.98 0.15686C1304.61 0.15686 1357.39 30.5888 1408.54 59.9892C1457.89 88.444 1504.58 115.265 1600.02 115.265V149.652Z" fill="#FD6E12"/>
</svg>
