<svg width="1099" height="1098" viewBox="0 0 1099 1098" fill="none" xmlns="http://www.w3.org/2000/svg">
<g clip-path="url(#clip0_336_443)">
<path d="M549.594 1097.57C541.634 1097.57 535.189 1091.12 535.189 1083.16C535.189 1075.2 541.634 1068.76 549.594 1068.76C836.255 1068.76 1069.49 835.526 1069.49 548.864C1069.49 426.204 1025.95 307.109 946.916 213.555C941.778 207.466 942.55 198.378 948.609 193.24C954.668 188.102 963.786 188.874 968.924 194.933C1052.35 293.684 1098.3 419.374 1098.3 548.864C1098.3 851.415 852.144 1097.57 549.594 1097.57Z" fill="white"/>
<path d="M186.426 955.156C182.921 955.156 179.416 953.879 176.625 951.325C64.9538 847.792 0.891602 701.075 0.891602 548.835C0.891602 246.284 247.043 0.132812 549.594 0.132812C613.775 0.132812 676.649 11.1217 736.434 32.7728C743.919 35.4755 747.78 43.7617 745.077 51.246C742.374 58.7303 734.088 62.621 726.604 59.8886C669.966 39.3661 610.418 28.9712 549.594 28.9712C262.932 28.9712 29.73 262.173 29.73 548.835C29.73 693.086 90.4362 832.051 196.256 930.149C202.107 935.555 202.434 944.672 197.028 950.523C194.177 953.582 190.316 955.127 186.455 955.127L186.426 955.156Z" fill="white"/>
<path d="M549.593 864.958C375.286 864.958 233.5 723.171 233.5 548.864C233.5 411.325 321.351 290.447 452.089 248.095C459.633 245.66 467.801 249.788 470.236 257.361C472.701 264.935 468.543 273.073 460.97 275.508C342.141 313.999 262.308 423.858 262.308 548.864C262.308 707.282 391.175 836.149 549.593 836.149C708.012 836.149 836.879 707.282 836.879 548.864C836.879 472.12 807.001 399.979 752.739 345.718C747.096 340.075 747.096 330.957 752.739 325.344C758.382 319.731 767.5 319.701 773.113 325.344C832.81 385.04 865.687 464.428 865.687 548.864C865.687 723.171 723.871 864.958 549.593 864.958Z" fill="white"/>
<path d="M549.593 644.081C531.892 644.081 514.607 639.181 499.609 629.944C492.837 625.757 490.729 616.876 494.916 610.105C499.104 603.333 507.984 601.254 514.756 605.412C525.18 611.857 537.238 615.273 549.593 615.273C586.213 615.273 616.002 585.484 616.002 548.864C616.002 512.244 586.213 482.456 549.593 482.456C512.974 482.456 483.185 512.244 483.185 548.864C483.185 556.824 476.74 563.268 468.781 563.268C460.821 563.268 454.376 556.824 454.376 548.864C454.376 496.355 497.084 453.617 549.623 453.617C602.162 453.617 644.87 496.325 644.87 548.864C644.87 601.403 602.162 644.081 549.623 644.081H549.593Z" fill="white"/>
</g>
<defs>
<clipPath id="clip0_336_443">
<rect width="1097.43" height="1097.43" fill="white" transform="translate(0.891602 0.132812)"/>
</clipPath>
</defs>
</svg>
