<svg width="1099" height="1098" viewBox="0 0 1099 1098" fill="none" xmlns="http://www.w3.org/2000/svg">
<g clip-path="url(#clip0_336_451)">
<path d="M549.388 1097.57C541.429 1097.57 534.984 1091.12 534.984 1083.16C534.984 1075.2 541.429 1068.76 549.388 1068.76C836.05 1068.76 1069.28 835.526 1069.28 548.864C1069.28 426.204 1025.74 307.109 946.711 213.555C941.573 207.466 942.345 198.378 948.404 193.24C954.463 188.102 963.58 188.874 968.718 194.933C1052.14 293.684 1098.09 419.374 1098.09 548.864C1098.09 851.415 851.939 1097.57 549.388 1097.57Z" fill="#50B9E0"/>
<path d="M186.22 955.156C182.716 955.156 179.211 953.879 176.42 951.325C64.7486 847.792 0.686401 701.075 0.686401 548.835C0.686401 246.284 246.837 0.132812 549.388 0.132812C613.569 0.132812 676.444 11.1217 736.229 32.7728C743.713 35.4755 747.574 43.7617 744.872 51.246C742.169 58.7303 733.883 62.621 726.399 59.8886C669.761 39.3661 610.213 28.9712 549.388 28.9712C262.727 28.9712 29.5248 262.173 29.5248 548.835C29.5248 693.086 90.231 832.051 196.051 930.149C201.902 935.555 202.229 944.672 196.823 950.523C193.972 953.582 190.111 955.127 186.25 955.127L186.22 955.156Z" fill="#50B9E0"/>
<path d="M549.388 864.958C375.081 864.958 233.294 723.171 233.294 548.864C233.294 411.325 321.146 290.447 451.884 248.095C459.428 245.66 467.595 249.788 470.031 257.361C472.496 264.935 468.338 273.073 460.764 275.508C341.936 313.999 262.103 423.858 262.103 548.864C262.103 707.282 390.97 836.149 549.388 836.149C707.806 836.149 836.673 707.282 836.673 548.864C836.673 472.12 806.796 399.979 752.534 345.718C746.891 340.075 746.891 330.957 752.534 325.344C758.177 319.731 767.295 319.701 772.908 325.344C832.605 385.04 865.482 464.428 865.482 548.864C865.482 723.171 723.666 864.958 549.388 864.958Z" fill="#50B9E0"/>
<path d="M549.388 644.081C531.687 644.081 514.402 639.181 499.404 629.944C492.632 625.757 490.523 616.876 494.711 610.105C498.899 603.333 507.779 601.254 514.551 605.412C524.975 611.857 537.033 615.273 549.388 615.273C586.008 615.273 615.797 585.484 615.797 548.864C615.797 512.244 586.008 482.456 549.388 482.456C512.769 482.456 482.98 512.244 482.98 548.864C482.98 556.824 476.535 563.268 468.575 563.268C460.616 563.268 454.171 556.824 454.171 548.864C454.171 496.355 496.879 453.617 549.418 453.617C601.957 453.617 644.665 496.325 644.665 548.864C644.665 601.403 601.957 644.081 549.418 644.081H549.388Z" fill="#50B9E0"/>
</g>
<defs>
<clipPath id="clip0_336_451">
<rect width="1097.43" height="1097.43" fill="white" transform="translate(0.686401 0.132812)"/>
</clipPath>
</defs>
</svg>
