<svg width="390" height="371" viewBox="0 0 390 371" fill="none" xmlns="http://www.w3.org/2000/svg">
<path d="M17.7503 272.939C72.179 284.122 119.913 321.963 182.152 358.896C204.067 371.859 229.241 373.691 251.4 366.398C273.506 359.106 292.666 342.671 302.603 319.206C330.724 252.492 346.659 193.663 383.793 152.315C394.898 140.121 388.43 120.476 372.287 117.318C330.707 109.153 300.162 73.5806 298.28 31.2211C297.513 14.7518 279.085 5.48786 265.399 14.6646C258.321 19.4623 250.72 23.0911 242.927 25.6732C211.982 35.8618 177.236 29.0054 152.218 6.18571C146.169 0.655251 138.184 -0.513647 131.402 1.71947C124.62 3.95259 118.885 9.64007 117.281 17.7002C110.76 50.9004 86.8235 77.1221 55.8783 87.3108C48.0679 89.8928 39.8042 91.4804 31.2616 91.8293C14.804 92.597 5.47685 110.985 14.6994 124.681C38.2701 159.887 34.8181 206.678 6.2265 237.959C-4.89634 250.084 1.57164 269.746 17.7329 272.956L17.7503 272.939Z" fill="#FD6E12"/>
</svg>
