<svg width="1601" height="150" viewBox="0 0 1601 150" fill="none" xmlns="http://www.w3.org/2000/svg">
<path d="M1600.02 149.749C1495.4 149.749 1442.62 119.317 1391.46 89.9164C1342.11 61.4617 1295.42 34.6403 1199.98 34.6403C1104.54 34.6403 1057.94 61.4617 1008.5 89.9164C957.347 119.317 904.563 149.749 799.939 149.749C695.315 149.749 642.531 119.317 591.377 89.9164C542.026 61.4617 495.336 34.6403 399.981 34.6403C304.627 34.6403 257.937 61.4617 208.586 89.9164C157.432 119.317 104.648 149.749 0.0244141 149.749V115.362C95.4648 115.362 142.069 88.541 191.42 60.0862C242.573 30.6858 295.358 0.253845 399.981 0.253845C504.605 0.253845 557.389 30.6858 608.543 60.0862C657.894 88.541 704.584 115.362 799.939 115.362C895.293 115.362 941.983 88.541 991.42 60.0862C1042.57 30.6858 1095.36 0.253845 1199.98 0.253845C1304.61 0.253845 1357.39 30.6858 1408.54 60.0862C1457.89 88.541 1504.58 115.362 1600.02 115.362V149.749Z" fill="#50B9E0"/>
</svg>
