<svg width="389" height="371" viewBox="0 0 389 371" fill="none" xmlns="http://www.w3.org/2000/svg">
<path d="M17.18 272.939C71.6087 284.122 119.343 321.963 181.582 358.896C203.496 371.859 228.671 373.691 250.829 366.398C272.936 359.106 292.096 342.671 302.033 319.206C330.154 252.492 346.088 193.663 383.223 152.315C394.328 140.121 387.86 120.476 371.716 117.318C330.136 109.153 299.592 73.5806 297.709 31.2211C296.942 14.7518 278.515 5.48786 264.829 14.6646C257.751 19.4623 250.15 23.0911 242.357 25.6732C211.411 35.8618 176.666 29.0054 151.648 6.18571C145.598 0.655251 137.614 -0.513647 130.832 1.71947C124.05 3.95259 118.314 9.64007 116.71 17.7002C110.19 50.9004 86.2532 77.1221 55.308 87.3108C47.4976 89.8928 39.2339 91.4804 30.6913 91.8293C14.2336 92.597 4.90649 110.985 14.129 124.681C37.6997 159.887 34.2478 206.678 5.65615 237.959C-5.4667 250.084 1.00129 269.746 17.1625 272.956L17.18 272.939Z" fill="white"/>
</svg>
