<?xml version="1.0" encoding="UTF-8"?>
<svg id="Layer_1" data-name="Layer 1" xmlns="http://www.w3.org/2000/svg" width="32" height="32" xmlns:xlink="http://www.w3.org/1999/xlink" viewBox="0 0 32 32">
  <defs>
    <clipPath id="clippath">
      <circle cx="16.02" cy="16" r="16" fill="none"/>
    </clipPath>
  </defs>
  <circle cx="16" cy="16" r="16" fill="#1a1a1a"/>
  <g clip-path="url(#clippath)">
    <g>
      <path d="M33.85,11.2c-.86-1.74-1.94-2.74-3.36-3.7-1.5-1.01-3.33-1.39-4.96-1.36.06,1.14.27,2.96.72,4.73,0,0,0,0,0,0,3.65.14,6.76.29,7.6.33Z" fill="#fff"/>
      <path d="M24.78,12.82c-.02-.43-.31-.79-.71-.87-.63-.12-1.52-.15-2.01-.15-.16,0-.28,0-.33,0-.06,0-.12,0-.17.01-2.18.08-1.64,4.25.13,4.64.29.06.55.09.79.1,2.28.07,2.38-2.27,2.3-3.73ZM22.46,15.23c-.51,0-.92-.47-.92-1.05s.41-1.05.92-1.05.92.47.92,1.05-.41,1.05-.92,1.05Z" fill="#fff"/>
      <path d="M20.14,16.65c-.62-.62-1.04-1.59-1.01-3.75.02-.36-.07-.84-.62-.99,0,0-.97-.19-1.54.21-.16.11-.76.69-.87.8,0,0,0,0-.01.01,0,0-.13.1-.19.16-.1.09-.34.29-.62.51-.14.11-.29.22-.44.33-.23.16-.45.3-.61.37-.24.1-.54.17-.86.22-.21.03-.43.05-.65.07-.22.02-.44.03-.65.04-.02,0-.04,0-.07,0,0,0,0,0,0,0,0,0,0,0,0,0-.4,0-.78,0-.93,0-.07,0-.13,0-.19,0,0,0,0,0,0,0,0,0,0,0,0,0-.05,0-.34,0-.71-.02-.56-.01-1.3-.03-1.66-.05-1.11-.04-2.26-.09-3.4.04-2.27.27-3.65,1.11-4.12,2.49-.36,1.08.02,2.4.97,3.37,1.52,1.55,4.16,2.29,6.08,2.29,3.17.01,5.09-.55,6.48-1.05,1.92-.7,5.16-2.01,6.19-4.6-.21-.11-.4-.25-.57-.42ZM4.5,18.53c-.57,0-1.04-.26-1.04-.58s.46-.58,1.04-.58,1.04.26,1.04.58-.46.58-1.04.58ZM7.54,20.2c-.57,0-1.04-.26-1.04-.58s.46-.58,1.04-.58,1.04.26,1.04.58-.46.58-1.04.58Z" fill="#fff"/>
      <path d="M12.03,14h.03c.2-.01.41-.02.61-.03.15-.01.29-.02.41-.04,0-.03,0-.06,0-.09,0-.58.4-1.05.9-1.05.31,0,.58.18.74.46.04-.03.09-.07.14-.1.27-.21.49-.4.58-.47.05-.04.11-.09.17-.14h.01s.15-.16.28-.28c-.24-.33-.73-.62-1.73-.63-.14,0-.29,0-.45.02l-.37.03c-.42.04-.8.14-1,.3-.49.38-.5,1.36-.44,2.05.08,0,.14,0,.14,0Z" fill="#fff"/>
      <path d="M10.17,13.98h.41c.13.01.22.01.28.02,0-.91.01-2.36.13-2.77.09-.32.28-.56.58-.64.4-.11,3.78-.06,6.81.01h0c.13,0,.26,0,.39,0,0,0,0,0,0,0,0,0,0,0,0,0,2.14.06,4.51.15,6.73.23-.34-1.41-.54-2.84-.64-3.94-.03-.34-.05-.5-.07-.71-1.03.1-2.08.4-3.11.87-1.46.67-2.63,1.4-3.66,2.82h-.45c-1.71-.06-3.08-.08-4.08-.08-1.51,0-1.91.05-2.11.1-.53.14-.92.54-1.09,1.13-.15.52-.17,2-.16,2.95.01,0,.02,0,.03,0Z" fill="#fff"/>
      <path d="M26.8,12.58s0,0,0,0c.03.09.07.17.1.26.03.09.07.18.1.27.21.53.43,1.05.68,1.56.13.26.26.51.4.76.08.14.16.27.24.41.21.36.44.7.68,1.04.07.09.14.19.21.28.1.14.21.27.32.4.58.69,1.22,1.31,1.96,1.83.41.3.85.57,1.33.8.16.08.33.15.5.23,0-.01.01-.02.02-.03.7-1.59,1.18-3.3,1.39-5.09.11-.93,0-1.88-.3-2.76-1.33-.2-5.76-.76-7.62.05Z" fill="#fff"/>
      <path d="M25.83,28.27c.39.07.73-.06,1.04-.27,2.6-1.72,4.72-4.11,6.11-6.92-1.05-.46-2.01-1.07-2.87-1.84-1.66-1.49-2.96-3.53-3.95-6.23-.07.08-.12.17-.16.26-.36.9-.2,2.66-1.19,3.51-.46.4-1.55,1.05-3.22.73-.08-.02-.16-.03-.24-.05-.73,1.85-2.38,3.08-4.16,3.97,0,0,0,0,0,0,.15.34.32.67.49.98,0,0,.01.02.02.03,2.28,3.95,6.68,5.43,8.11,5.82Z" fill="#fff"/>
    </g>
  </g>
</svg>